<svg xmlns="http://www.w3.org/2000/svg" xmlns:xlink="http://www.w3.org/1999/xlink" version="1.1" width="256" height="256" viewBox="0 0 256 256" xml:space="preserve">
<desc>Created with Fabric.js 1.7.22</desc>
<defs>
</defs>
<g transform="translate(128 128) scale(0.72 0.72)" style="">
	<g style="stroke: none; stroke-width: 0; stroke-dasharray: none; stroke-linecap: butt; stroke-linejoin: miter; stroke-miterlimit: 10; fill: none; fill-rule: nonzero; opacity: 1;" transform="translate(-175.05 -175.05000000000004) scale(3.89 3.89)" >
	<path d="M 45 20.384 c -0.847 0 -1.534 -0.687 -1.534 -1.534 V 2.286 c 0 -0.847 0.687 -1.534 1.534 -1.534 s 1.534 0.687 1.534 1.534 V 18.85 C 46.534 19.698 45.847 20.384 45 20.384 z" style="stroke: none; stroke-width: 1; stroke-dasharray: none; stroke-linecap: butt; stroke-linejoin: miter; stroke-miterlimit: 10; fill: rgb(0,0,0); fill-rule: nonzero; opacity: 1;" transform=" matrix(1 0 0 1 0 0) " stroke-linecap="round" />
	<path d="M 53.125 20.384 c -0.339 0 -0.679 -0.111 -0.963 -0.341 c -0.659 -0.532 -0.762 -1.498 -0.23 -2.157 l 8.125 -10.064 c 0.531 -0.66 1.499 -0.762 2.157 -0.23 c 0.659 0.532 0.762 1.498 0.23 2.157 l -8.125 10.064 C 54.017 20.189 53.572 20.384 53.125 20.384 z" style="stroke: none; stroke-width: 1; stroke-dasharray: none; stroke-linecap: butt; stroke-linejoin: miter; stroke-miterlimit: 10; fill: rgb(0,0,0); fill-rule: nonzero; opacity: 1;" transform=" matrix(1 0 0 1 0 0) " stroke-linecap="round" />
	<path d="M 36.876 20.384 c -0.448 0 -0.891 -0.195 -1.195 -0.57 L 27.555 9.75 c -0.532 -0.659 -0.429 -1.625 0.23 -2.157 c 0.66 -0.532 1.625 -0.428 2.157 0.23 l 8.126 10.064 c 0.532 0.659 0.429 1.625 -0.23 2.157 C 37.555 20.273 37.214 20.384 36.876 20.384 z" style="stroke: none; stroke-width: 1; stroke-dasharray: none; stroke-linecap: butt; stroke-linejoin: miter; stroke-miterlimit: 10; fill: rgb(0,0,0); fill-rule: nonzero; opacity: 1;" transform=" matrix(1 0 0 1 0 0) " stroke-linecap="round" />
	<path d="M 83.597 36.858 H 65.355 c -1.976 0 -3.747 -1.219 -4.453 -3.064 l -2.251 -5.882 c -0.494 -1.291 -1.732 -2.143 -3.114 -2.143 H 34.463 c -1.382 0 -2.62 0.852 -3.114 2.143 l -2.251 5.882 c -0.706 1.845 -2.477 3.064 -4.453 3.064 h -5.571 v -0.863 c 0 -2.2 -1.784 -3.984 -3.984 -3.984 s -3.984 1.784 -3.984 3.984 v 0.863 H 6.403 C 2.867 36.858 0 39.725 0 43.261 v 39.583 c 0 3.537 2.867 6.403 6.403 6.403 h 77.193 c 3.537 0 6.403 -2.867 6.403 -6.403 V 43.261 C 90 39.725 87.133 36.858 83.597 36.858 z M 73.569 42.547 h 7.814 c 0.847 0 1.534 0.687 1.534 1.534 s -0.687 1.534 -1.534 1.534 h -7.814 c -0.847 0 -1.534 -0.687 -1.534 -1.534 S 72.723 42.547 73.569 42.547 z M 54.844 46.117 c 0.487 -0.695 1.445 -0.859 2.137 -0.373 c 0.41 0.289 0.809 0.593 1.198 0.91 c 0.656 0.536 0.753 1.503 0.218 2.159 c -0.304 0.371 -0.745 0.563 -1.19 0.563 c -0.342 0 -0.684 -0.113 -0.97 -0.346 c -0.331 -0.271 -0.671 -0.53 -1.022 -0.777 C 54.522 47.767 54.356 46.81 54.844 46.117 z M 57.784 63.053 c 0 1.692 -0.323 3.308 -0.911 4.788 c -0.649 1.634 -1.62 3.102 -2.833 4.326 c -2.313 2.332 -5.509 3.775 -9.04 3.775 c -7.06 0 -12.784 -5.77 -12.784 -12.889 c 0 -3.559 1.431 -6.781 3.744 -9.114 c 1.214 -1.224 2.671 -2.203 4.291 -2.857 c 1.468 -0.592 3.07 -0.918 4.748 -0.918 C 52.06 50.164 57.784 55.935 57.784 63.053 z M 40.712 31.692 h 8.576 c 0.847 0 1.534 0.687 1.534 1.534 s -0.687 1.534 -1.534 1.534 h -8.576 c -0.847 0 -1.534 -0.687 -1.534 -1.534 S 39.864 31.692 40.712 31.692 z M 21.836 78.674 H 4.091 c -0.847 0 -1.534 -0.687 -1.534 -1.534 s 0.687 -1.534 1.534 -1.534 h 17.745 c 0.847 0 1.534 0.687 1.534 1.534 S 22.684 78.674 21.836 78.674 z M 64.451 70.888 c -1.058 2.661 -2.618 5.044 -4.639 7.081 c -3.955 3.988 -9.216 6.184 -14.812 6.184 c -11.547 0 -20.941 -9.465 -20.941 -21.1 c 0 -5.634 2.177 -10.931 6.129 -14.916 c 2.022 -2.038 4.387 -3.613 7.03 -4.679 c 5.017 -2.025 10.759 -1.998 15.755 0.078 c 0.782 0.325 1.154 1.222 0.829 2.005 c -0.326 0.782 -1.221 1.154 -2.006 0.828 c -4.258 -1.766 -9.157 -1.791 -13.431 -0.066 c -2.254 0.909 -4.273 2.254 -6 3.995 c -3.379 3.406 -5.239 7.936 -5.239 12.755 c 0 9.943 8.018 18.032 17.873 18.032 c 4.772 0 9.258 -1.874 12.633 -5.277 c 1.728 -1.742 3.062 -3.778 3.965 -6.052 c 0.846 -2.131 1.275 -4.387 1.275 -6.702 c 0 -4.081 -1.317 -7.929 -3.81 -11.13 c -0.52 -0.669 -0.401 -1.633 0.268 -2.153 c 0.669 -0.519 1.632 -0.402 2.153 0.268 c 2.916 3.745 4.457 8.246 4.457 13.016 C 65.942 65.758 65.441 68.394 64.451 70.888 z M 85.909 78.674 H 68.164 c -0.847 0 -1.534 -0.687 -1.534 -1.534 s 0.687 -1.534 1.534 -1.534 h 17.745 c 0.847 0 1.534 0.687 1.534 1.534 S 86.756 78.674 85.909 78.674 z" style="stroke: none; stroke-width: 1; stroke-dasharray: none; stroke-linecap: butt; stroke-linejoin: miter; stroke-miterlimit: 10; fill: rgb(0,0,0); fill-rule: nonzero; opacity: 1;" transform=" matrix(1 0 0 1 0 0) " stroke-linecap="round" />
</g>
</g>
</svg>