<svg xmlns="http://www.w3.org/2000/svg" xmlns:xlink="http://www.w3.org/1999/xlink" version="1.1" width="256" height="256" viewBox="0 0 256 256" xml:space="preserve">
<desc>Created with Fabric.js 1.7.22</desc>
<defs>
</defs>
<g transform="translate(128 128) scale(0.72 0.72)" style="">
	<g style="stroke: none; stroke-width: 0; stroke-dasharray: none; stroke-linecap: butt; stroke-linejoin: miter; stroke-miterlimit: 10; fill: none; fill-rule: nonzero; opacity: 1;" transform="translate(-175.05 -175.05000000000004) scale(3.89 3.89)" >
	<path d="M 51.506 9.529 c -0.847 0 -1.534 -0.687 -1.534 -1.534 v -6.46 C 49.972 0.687 50.659 0 51.506 0 s 1.534 0.687 1.534 1.534 v 6.46 C 53.04 8.842 52.353 9.529 51.506 9.529 z" style="stroke: none; stroke-width: 1; stroke-dasharray: none; stroke-linecap: butt; stroke-linejoin: miter; stroke-miterlimit: 10; fill: rgb(0,0,0); fill-rule: nonzero; opacity: 1;" transform=" matrix(1 0 0 1 0 0) " stroke-linecap="round" />
	<path d="M 59.172 12.562 c -0.393 0 -0.785 -0.15 -1.085 -0.449 c -0.599 -0.599 -0.599 -1.571 0 -2.169 l 4.568 -4.568 c 0.599 -0.599 1.57 -0.599 2.169 0 c 0.599 0.599 0.599 1.571 0 2.169 l -4.568 4.568 C 59.957 12.413 59.564 12.562 59.172 12.562 z" style="stroke: none; stroke-width: 1; stroke-dasharray: none; stroke-linecap: butt; stroke-linejoin: miter; stroke-miterlimit: 10; fill: rgb(0,0,0); fill-rule: nonzero; opacity: 1;" transform=" matrix(1 0 0 1 0 0) " stroke-linecap="round" />
	<path d="M 43.841 12.562 c -0.393 0 -0.785 -0.15 -1.085 -0.449 l -4.568 -4.568 c -0.599 -0.599 -0.599 -1.571 0 -2.169 c 0.599 -0.599 1.57 -0.599 2.169 0 l 4.568 4.568 c 0.599 0.599 0.599 1.571 0 2.169 C 44.626 12.413 44.233 12.562 43.841 12.562 z" style="stroke: none; stroke-width: 1; stroke-dasharray: none; stroke-linecap: butt; stroke-linejoin: miter; stroke-miterlimit: 10; fill: rgb(0,0,0); fill-rule: nonzero; opacity: 1;" transform=" matrix(1 0 0 1 0 0) " stroke-linecap="round" />
	<path d="M 25.849 69.734 c -1.063 -1.248 -1.576 -2.836 -1.444 -4.471 c 0.132 -1.635 0.893 -3.12 2.142 -4.184 c 2.478 -2.108 6.16 -1.899 8.39 0.405 V 37.977 c 0 -3.386 2.755 -6.14 6.139 -6.14 c 1.119 0 2.168 0.301 3.072 0.825 V 32.49 c 0 -3.386 2.755 -6.14 6.14 -6.14 c 2.699 0 4.996 1.75 5.818 4.174 c 0.973 -0.648 2.14 -1.026 3.395 -1.026 c 3.386 0 6.14 2.755 6.14 6.14 v 3.131 c 0.462 -0.269 0.962 -0.481 1.489 -0.625 l 2.446 -2.446 c 1.799 -1.799 1.799 -4.715 0 -6.514 c -1.799 -1.799 -4.715 -1.799 -6.514 0 l 2.226 -2.226 c 1.799 -1.799 1.799 -4.715 0 -6.514 c -1.799 -1.799 -4.715 -1.799 -6.514 0 l -3.88 3.88 c 1.799 -1.799 1.799 -4.715 0 -6.514 c -1.799 -1.799 -4.715 -1.799 -6.514 0 l -0.86 0.86 l -8.377 8.378 L 28.823 37.367 l 0.302 -3.748 c 0.204 -2.536 -1.685 -4.757 -4.221 -4.961 v 0 c -2.536 -0.204 -4.757 1.685 -4.961 4.221 l -1.67 20.712 c -0.046 0.407 -0.08 0.815 -0.099 1.223 l -0.007 0.09 l 0.004 0 c -0.208 4.978 1.587 10.025 5.388 13.826 c 1.219 1.219 2.573 2.214 4.005 3.021 L 25.849 69.734 z" style="stroke: none; stroke-width: 1; stroke-dasharray: none; stroke-linecap: butt; stroke-linejoin: miter; stroke-miterlimit: 10; fill: rgb(0,0,0); fill-rule: nonzero; opacity: 1;" transform=" matrix(1 0 0 1 0 0) " stroke-linecap="round" />
	<path d="M 49.658 68.73 l 3.067 -3.067 l 17.244 -17.244 l 0.205 -0.205 c 1.799 -1.799 1.799 -4.715 0 -6.514 v 0 c -0.255 -0.255 -0.538 -0.465 -0.834 -0.649 c -0.184 -0.035 -0.373 -0.057 -0.567 -0.057 c -1.698 0 -3.132 1.413 -3.132 3.085 v 7.646 c 0 0.847 -0.687 1.534 -1.534 1.534 s -1.534 -0.687 -1.534 -1.534 v -7.646 v -8.439 c 0 -1.694 -1.378 -3.072 -3.072 -3.072 c -1.694 0 -3.072 1.378 -3.072 3.072 v 16.085 c 0 0.847 -0.687 1.534 -1.534 1.534 s -1.534 -0.687 -1.534 -1.534 V 35.638 V 32.49 c 0 -1.694 -1.378 -3.072 -3.072 -3.072 c -1.694 0 -3.072 1.378 -3.072 3.072 v 5.487 v 13.746 c 0 0.847 -0.687 1.534 -1.534 1.534 s -1.534 -0.687 -1.534 -1.534 V 37.977 c 0 -1.694 -1.378 -3.072 -3.072 -3.072 c -1.694 0 -3.071 1.378 -3.071 3.072 v 27.658 c 0 0.643 -0.402 1.217 -1.005 1.44 c -0.602 0.22 -1.28 0.044 -1.698 -0.446 l -2.437 -2.864 c -1.098 -1.288 -3.041 -1.446 -4.331 -0.349 c -0.624 0.531 -1.006 1.275 -1.072 2.093 c -0.066 0.818 0.191 1.612 0.722 2.236 l 5.183 6.092 C 39.104 74.856 45.227 73.161 49.658 68.73 z" style="stroke: none; stroke-width: 1; stroke-dasharray: none; stroke-linecap: butt; stroke-linejoin: miter; stroke-miterlimit: 10; fill: rgb(0,0,0); fill-rule: nonzero; opacity: 1;" transform=" matrix(1 0 0 1 0 0) " stroke-linecap="round" />
	<path d="M 71.845 44.065 c 0 -1.694 -1.377 -3.072 -3.071 -3.072 c -1.698 0 -3.132 1.413 -3.132 3.085 v 7.646 c 0 0.847 -0.687 1.534 -1.534 1.534 s -1.534 -0.687 -1.534 -1.534 v -7.646 v -8.439 c 0 -1.694 -1.378 -3.072 -3.072 -3.072 c -1.694 0 -3.072 1.378 -3.072 3.072 v 16.085 c 0 0.847 -0.687 1.534 -1.534 1.534 s -1.534 -0.687 -1.534 -1.534 V 35.638 V 32.49 c 0 -1.694 -1.378 -3.072 -3.072 -3.072 c -1.694 0 -3.072 1.378 -3.072 3.072 v 5.487 v 13.746 c 0 0.847 -0.687 1.534 -1.534 1.534 s -1.534 -0.687 -1.534 -1.534 V 37.977 c 0 -1.694 -1.378 -3.072 -3.072 -3.072 c -1.694 0 -3.071 1.378 -3.071 3.072 v 27.658 c 0 0.643 -0.402 1.217 -1.005 1.44 c -0.602 0.22 -1.28 0.044 -1.698 -0.446 l -2.437 -2.864 c -1.098 -1.288 -3.041 -1.446 -4.331 -0.349 c -0.624 0.531 -1.006 1.275 -1.072 2.093 c -0.066 0.818 0.191 1.612 0.722 2.236 L 41.65 83.573 c 0.266 0.333 0.509 0.619 0.762 0.898 c 0.002 0.002 0.006 0.006 0.011 0.012 c 0.015 0.015 0.03 0.03 0.045 0.046 C 45.665 88.005 50.206 90 54.925 90 c 9.329 0 16.92 -7.591 16.92 -16.92 V 44.065 z" style="stroke: none; stroke-width: 1; stroke-dasharray: none; stroke-linecap: butt; stroke-linejoin: miter; stroke-miterlimit: 10; fill: rgb(0,0,0); fill-rule: nonzero; opacity: 1;" transform=" matrix(1 0 0 1 0 0) " stroke-linecap="round" />
</g>
</g>
</svg>